<svg xmlns="http://www.w3.org/2000/svg" viewBox="0 0 114.02 174.51"><defs><style>.cls-1{fill:#1b1f2b;}.cls-2{fill:#f7931a;}</style></defs><g id="Layer_2" data-name="Layer 2"><g id="Layer_6" data-name="Layer 6"><path class="cls-1" d="M84.7,138.67A57,57,0,0,0,49.37,32.35L36.86,0,28,3.45l12,31a56.47,56.47,0,0,0-10.83,4.7L18.22,11,9.3,14.46,21,44.66A57,57,0,0,0,54.06,145.77l11.11,28.74,8.92-3.45-9.93-25.67a56.64,56.64,0,0,0,12.44-3L89,174.51l8.92-3.45L85.32,138.43Z"/><circle class="cls-2" cx="57.01" cy="88.84" r="49.05"/><path class="cls-1" d="M54.7,85l1.39,8.63,13.1-2.11,1.47,9.08a17.26,17.26,0,0,1-10.91,6c-12.73,2-19-5.86-20.39-14.28C37.66,81.73,43,72.31,54,70.54a19.93,19.93,0,0,1,13.75,3h0l5.22,3.81L87.09,57.65l-5.32-3.81-9,12.58a26.23,26.23,0,0,0-2.6-1.63l9.11-12.74L74,48.24l-10,14a27.26,27.26,0,0,0-11.39-.58C34.44,64.6,27.59,79.37,29.91,93.79a30.11,30.11,0,0,0,4.26,11.49l-10,14,5.33,3.81,9.11-12.73A21.53,21.53,0,0,0,41,112.23L32,124.9l5.33,3.81L47.1,115a31.94,31.94,0,0,0,14.11.56A25.86,25.86,0,0,0,80.14,103L76.66,81.45Z"/></g></g></svg>