<svg xmlns="http://www.w3.org/2000/svg" viewBox="0 0 252.08 221.93"><defs><style>.cls-1{fill:#1b1f2b;}.cls-2{fill:#f7931a;}</style></defs><g id="Layer_2" data-name="Layer 2"><g id="Layer_6" data-name="Layer 6"><path class="cls-1" d="M153.73,138.67A57,57,0,0,0,118.4,32.35L105.89,0,97,3.45l12,31a56.47,56.47,0,0,0-10.83,4.7L87.25,11l-8.92,3.45L90,44.66a57,57,0,0,0,33.08,101.11l11.11,28.74,8.92-3.45-9.93-25.67a56.64,56.64,0,0,0,12.44-3l12.42,32.12,8.92-3.45-12.62-32.63Z"/><circle class="cls-2" cx="126.04" cy="88.84" r="49.05"/><path class="cls-1" d="M123.73,85l1.39,8.63,13.1-2.11,1.47,9.08a17.26,17.26,0,0,1-10.9,6c-12.74,2-19-5.86-20.4-14.28-1.7-10.54,3.61-20,14.59-21.73a19.93,19.93,0,0,1,13.75,3h0L142,77.31l14.17-19.66-5.32-3.81-9,12.58a26.23,26.23,0,0,0-2.6-1.63l9.11-12.74L143,48.24l-10,14a27.26,27.26,0,0,0-11.39-.58c-18.08,2.91-24.93,17.68-22.61,32.1a30.11,30.11,0,0,0,4.26,11.49l-10,14,5.33,3.81,9.11-12.73a21.53,21.53,0,0,0,2.45,1.85L101,124.9l5.33,3.81L116.13,115a31.94,31.94,0,0,0,14.11.56A25.86,25.86,0,0,0,149.17,103l-3.48-21.59Z"/><path class="cls-1" d="M26,196.1a12.72,12.72,0,0,0-8.43-3.32c-7.11,0-11.43,5.41-11.43,12.23,0,5.45,3.18,11.09,11.43,11.09A11,11,0,0,0,25,213.45v-5.88H16.54V202H30.76v14a16.53,16.53,0,0,1-13.22,6C5.07,221.93,0,213.73,0,205c0-9.33,5.83-18,17.54-18a17.54,17.54,0,0,1,12.32,5.07Z"/><path class="cls-1" d="M38.44,197.81l.42,2.7c1.8-2.89,4.22-3.32,6.59-3.32a8.86,8.86,0,0,1,6,2.23l-2.61,5a5.78,5.78,0,0,0-4.17-1.51c-3,0-5.83,1.61-5.83,5.92v12.32H33.08V197.81Z"/><path className="cls-1" d="M74.5,209.51c0,6.73-4.59,12.19-12.18,12.19s-12.13-5.46-12.13-12.19,4.64-12.18,12.08-12.18A11.81,11.81,0,0,1,74.5,209.51Zm-18.53,0c0,3.56,2.13,6.88,6.35,6.88s6.35-3.32,6.35-6.88-2.46-6.91-6.35-6.91C58.15,202.6,56,206,56,209.51Z"/><path class="cls-1" d="M96.59,197.76l5.12,17.58,5.35-17.58h6.4l-8.15,23.51H98.58l-2.42-6.92-2.08-7.82L92,214.35l-2.42,6.92H82.84l-8.2-23.51h6.45l5.36,17.58,5.07-17.58Z"/><path class="cls-1" d="M140.19,197.76l-9.95,23.51H124l-10-23.51h6.3l3.23,7.73,3.6,9.85,3.55-9.76,3.23-7.82Z"/><path class="cls-1" d="M145.54,211.55c.38,2.89,2.9,5,7,5,2.13,0,4.93-.81,6.26-2.18l3.69,3.65c-2.46,2.56-6.49,3.79-10,3.79-8.06,0-12.85-5-12.85-12.46,0-7.11,4.84-12.23,12.42-12.23,7.82,0,12.7,4.83,11.8,14.45Zm12.71-4.78c-.38-3-2.75-4.55-6.07-4.55-3.13,0-5.69,1.51-6.54,4.55Z"/><path class="cls-1" d="M189.1,209.51c0,6.73-4.6,12.19-12.18,12.19s-12.13-5.46-12.13-12.19,4.64-12.18,12.08-12.18A11.82,11.82,0,0,1,189.1,209.51Zm-18.53,0c0,3.56,2.13,6.88,6.35,6.88s6.35-3.32,6.35-6.88-2.47-6.91-6.35-6.91C172.75,202.6,170.57,206,170.57,209.51Z"/><path class="cls-1" d="M207.91,221.17V209c0-3.56-1.94-6.26-5.64-6.26s-6,3-6,6.54v11.94h-5.73V197.76h5.16l.38,3.18c2.37-2.33,4.74-3.51,7.68-3.51,5.5,0,9.91,4.12,9.91,11.47v12.27Z"/><path class="cls-1" d="M236.35,218.19a12,12,0,0,1-9,3.69c-6.77,0-12.41-4.07-12.41-12.37s5.64-12.37,12.41-12.37a11.11,11.11,0,0,1,8.44,3.46l-3.65,3.84a7.09,7.09,0,0,0-4.69-1.84,6.57,6.57,0,0,0-6.73,6.91c0,4.46,3,6.83,6.63,6.83a7,7,0,0,0,5.12-1.94Z"/><path class="cls-1" d="M244.69,191.22v6.64h6.45v5h-6.5v10.1c0,2.22,1.24,3.31,3,3.31a6.52,6.52,0,0,0,2.79-.71l1.61,4.93a12.79,12.79,0,0,1-4.78,1c-5.07.19-8.39-2.7-8.39-8.53v-10.1h-4.36v-5h4.36v-6Z"/></g></g></svg>